REM DIRINDEX 1\2,1\3,1\4,1\5,1\6
REM DIRNAME folder01,folder02,folder03,folder04,folder05,folder06
TITLE ""
FILE "Disc4Track69.mp3" MP3
  TRACK 01 AUDIO
    TITLE "3:cjc030_08100"
    INDEX 01 00:00:00
  TRACK 02 AUDIO
    TITLE "0:"
    INDEX 01 00:01:09
  TRACK 03 AUDIO
    TITLE "4:cjc030_08101"
    INDEX 01 00:01:17
  TRACK 04 AUDIO
    TITLE "0:"
    INDEX 01 00:02:12
  TRACK 05 AUDIO
    TITLE "5:cjc030_08102"
    INDEX 01 00:02:20
  TRACK 06 AUDIO
    TITLE "0:"
    INDEX 01 00:03:31
  TRACK 07 AUDIO
    TITLE "6:cjc030_08103"
    INDEX 01 00:03:45
  TRACK 08 AUDIO
    TITLE "0:"
    INDEX 01 00:06:51
  TRACK 09 AUDIO
    TITLE "3:cjc030_08104"
    INDEX 01 00:07:25
  TRACK 10 AUDIO
    TITLE "0:"
    INDEX 01 00:08:42
  TRACK 11 AUDIO
    TITLE "4:cjc030_08105"
    INDEX 01 00:08:48
  TRACK 12 AUDIO
    TITLE "0:"
    INDEX 01 00:10:21
  TRACK 13 AUDIO
    TITLE "5:cjc030_08106"
    INDEX 01 00:10:29
  TRACK 14 AUDIO
    TITLE "0:"
    INDEX 01 00:11:46
  TRACK 15 AUDIO
    TITLE "6:cjc030_08107"
    INDEX 01 00:11:58
  TRACK 16 AUDIO
    TITLE "0:"
    INDEX 01 00:15:17
  TRACK 17 AUDIO
    TITLE "3:cjc030_08108"
    INDEX 01 00:15:70
  TRACK 18 AUDIO
    TITLE "0:"
    INDEX 01 00:16:71
  TRACK 19 AUDIO
    TITLE "4:cjc030_08109"
    INDEX 01 00:17:02
  TRACK 20 AUDIO
    TITLE "0:"
    INDEX 01 00:18:13
  TRACK 21 AUDIO
    TITLE "5:cjc030_08110"
    INDEX 01 00:18:21
  TRACK 22 AUDIO
    TITLE "0:"
    INDEX 01 00:19:24
  TRACK 23 AUDIO
    TITLE "6:cjc030_08111"
    INDEX 01 00:19:36
  TRACK 24 AUDIO
    TITLE "0:"
    INDEX 01 00:22:34
  TRACK 25 AUDIO
    TITLE "3:cjc030_08112"
    INDEX 01 00:23:10
  TRACK 26 AUDIO
    TITLE "0:"
    INDEX 01 00:24:27
  TRACK 27 AUDIO
    TITLE "4:cjc030_08113"
    INDEX 01 00:24:37
  TRACK 28 AUDIO
    TITLE "0:"
    INDEX 01 00:25:33
  TRACK 29 AUDIO
    TITLE "5:cjc030_08114"
    INDEX 01 00:25:41
  TRACK 30 AUDIO
    TITLE "0:"
    INDEX 01 00:26:60
  TRACK 31 AUDIO
    TITLE "3:cjc030_08115"
    INDEX 01 00:27:39
  TRACK 32 AUDIO
    TITLE "0:"
    INDEX 01 00:28:51
  TRACK 33 AUDIO
    TITLE "4:cjc030_08116"
    INDEX 01 00:28:60
  TRACK 34 AUDIO
    TITLE "0:"
    INDEX 01 00:29:64
  TRACK 35 AUDIO
    TITLE "5:cjc030_08117"
    INDEX 01 00:29:72
  TRACK 36 AUDIO
    TITLE "0:"
    INDEX 01 00:31:06
  TRACK 37 AUDIO
    TITLE "3:cjc030_08118"
    INDEX 01 00:31:67
  TRACK 38 AUDIO
    TITLE "0:"
    INDEX 01 00:33:05
  TRACK 39 AUDIO
    TITLE "4:cjc030_08119"
    INDEX 01 00:33:15
  TRACK 40 AUDIO
    TITLE "0:"
    INDEX 01 00:34:12
  TRACK 41 AUDIO
    TITLE "5:cjc030_08120"
    INDEX 01 00:34:18
  TRACK 42 AUDIO
    TITLE "0:"
    INDEX 01 00:35:33
  TRACK 43 AUDIO
    TITLE "6:cjc030_08121"
    INDEX 01 00:35:47
  TRACK 44 AUDIO
    TITLE "0:"
    INDEX 01 00:41:69
  TRACK 45 AUDIO
    TITLE "3:cjc030_08122"
    INDEX 01 00:42:43
  TRACK 46 AUDIO
    TITLE "0:"
    INDEX 01 00:43:66
  TRACK 47 AUDIO
    TITLE "4:cjc030_08123"
    INDEX 01 00:43:72
  TRACK 48 AUDIO
    TITLE "0:"
    INDEX 01 00:45:06
  TRACK 49 AUDIO
    TITLE "5:cjc030_08124"
    INDEX 01 00:45:12
  TRACK 50 AUDIO
    TITLE "0:"
    INDEX 01 00:46:33
  TRACK 51 AUDIO
    TITLE "6:cjc030_08125"
    INDEX 01 00:46:49
  TRACK 52 AUDIO
    TITLE "0:"
    INDEX 01 00:50:44
  TRACK 53 AUDIO
    TITLE "3:cjc030_08126"
    INDEX 01 00:51:16
  TRACK 54 AUDIO
    TITLE "0:"
    INDEX 01 00:52:22
  TRACK 55 AUDIO
    TITLE "4:cjc030_08127"
    INDEX 01 00:52:30
  TRACK 56 AUDIO
    TITLE "0:"
    INDEX 01 00:53:29
  TRACK 57 AUDIO
    TITLE "5:cjc030_08128"
    INDEX 01 00:53:39
  TRACK 58 AUDIO
    TITLE "0:"
    INDEX 01 00:54:42
  TRACK 59 AUDIO
    TITLE "6:cjc030_08129"
    INDEX 01 00:54:56
  TRACK 60 AUDIO
    TITLE "0:"
    INDEX 01 00:57:35
  TRACK 61 AUDIO
    TITLE "3:cjc030_08130"
    INDEX 01 00:58:09
  TRACK 62 AUDIO
    TITLE "0:"
    INDEX 01 00:59:34
  TRACK 63 AUDIO
    TITLE "4:cjc030_08131"
    INDEX 01 00:59:43
  TRACK 64 AUDIO
    TITLE "0:"
    INDEX 01 01:01:29
  TRACK 65 AUDIO
    TITLE "5:cjc030_08132"
    INDEX 01 01:01:40
  TRACK 66 AUDIO
    TITLE "0:"
    INDEX 01 01:02:65
  TRACK 67 AUDIO
    TITLE "6:cjc030_08133"
    INDEX 01 01:03:02
  TRACK 68 AUDIO
    TITLE "0:"
    INDEX 01 01:09:54
  TRACK 69 AUDIO
    TITLE "3:cjc030_08134"
    INDEX 01 01:10:26
  TRACK 70 AUDIO
    TITLE "0:"
    INDEX 01 01:11:56
  TRACK 71 AUDIO
    TITLE "4:cjc030_08135"
    INDEX 01 01:11:66
  TRACK 72 AUDIO
    TITLE "0:"
    INDEX 01 01:14:00
  TRACK 73 AUDIO
    TITLE "5:cjc030_08136"
    INDEX 01 01:14:06
  TRACK 74 AUDIO
    TITLE "0:"
    INDEX 01 01:15:40
